Wavefont-wmax,rmax,amin,smin.ufo
<glyph name="_2" format="2">
	<unicode hex="0102"/>
	<unicode hex="0062"/>
	<advance width="25"/>
	<outline>
		<component base="cap"/>
		<component base="cap" yOffset="-236"/>
		<contour>
			<point x="0" y="128" type="line"/>
			<point x="0" y="-108" type="line"/>
			<point x="256" y="-108" type="line"/>
			<point x="256" y="128" type="line"/>
		</contour>
	</outline>
</glyph>
<glyph name="_5" format="2">
	<unicode hex="0105"/>
	<advance width="25"/>
	<outline>
		<component base="cap"/>
		<component base="cap" yOffset="-206"/>
		<contour>
			<point x="0" y="128" type="line"/>
			<point x="0" y="-78" type="line"/>
			<point x="256" y="-78" type="line"/>
			<point x="256" y="128" type="line"/>
		</contour>
	</outline>
</glyph>
<glyph name="_13" format="2">
	<unicode hex="010D"/>
	<advance width="25"/>
	<outline>
		<component base="cap"/>
		<component base="cap" yOffset="-126"/>
		<contour>
			<point x="0" y="128" type="line"/>
			<point x="0" y="2" type="line"/>
			<point x="256" y="2" type="line"/>
			<point x="256" y="128" type="line"/>
		</contour>
	</outline>
</glyph>
<glyph name="_14" format="2">
	<unicode hex="010E"/>
	<unicode hex="2582"/>
	<unicode hex="0068"/>
	<advance width="25"/>
	<outline>
		<component base="cap"/>
		<component base="cap" yOffset="-116"/>
		<contour>
			<point x="0" y="128" type="line"/>
			<point x="0" y="12" type="line"/>
			<point x="256" y="12" type="line"/>
			<point x="256" y="128" type="line"/>
		</contour>
	</outline>
</glyph>
<glyph name="_15" format="2">
	<unicode hex="010F"/>
	<advance width="25"/>
	<outline>
		<component base="cap"/>
		<component base="cap" yOffset="-106"/>
		<contour>
			<point x="0" y="128" type="line"/>
			<point x="0" y="22" type="line"/>
			<point x="256" y="22" type="line"/>
			<point x="256" y="128" type="line"/>
		</contour>
	</outline>
</glyph>
<glyph name="_18" format="2">
	<unicode hex="0112"/>
	<unicode hex="006A"/>
	<advance width="25"/>
	<outline>
		<component base="cap"/>
		<component base="cap" yOffset="-76"/>
		<contour>
			<point x="0" y="128" type="line"/>
			<point x="0" y="52" type="line"/>
			<point x="256" y="52" type="line"/>
			<point x="256" y="128" type="line"/>
		</contour>
	</outline>
</glyph>
<glyph name="_21" format="2">
	<unicode hex="0115"/>
	<advance width="25"/>
	<outline>
		<component base="cap"/>
		<component base="cap" yOffset="-46"/>
		<contour>
			<point x="0" y="128" type="line"/>
			<point x="0" y="82" type="line"/>
			<point x="256" y="82" type="line"/>
			<point x="256" y="128" type="line"/>
		</contour>
	</outline>
</glyph>
<glyph name="_22" format="2">
	<unicode hex="0116"/>
	<unicode hex="006C"/>
	<advance width="25"/>
	<outline>
		<component base="cap"/>
		<component base="cap" yOffset="-36"/>
		<contour>
			<point x="0" y="128" type="line"/>
			<point x="0" y="92" type="line"/>
			<point x="256" y="92" type="line"/>
			<point x="256" y="128" type="line"/>
		</contour>
	</outline>
</glyph>
<glyph name="_23" format="2">
	<unicode hex="0117"/>
	<advance width="25"/>
	<outline>
		<component base="cap"/>
		<component base="cap" yOffset="-26"/>
		<contour>
			<point x="0" y="128" type="line"/>
			<point x="0" y="102" type="line"/>
			<point x="256" y="102" type="line"/>
			<point x="256" y="128" type="line"/>
		</contour>
	</outline>
</glyph>
<glyph name="_27" format="2">
	<unicode hex="011B"/>
	<advance width="25"/>
	<outline>
		<component base="cap"/>
		<component base="cap" yOffset="14"/>
		<contour>
			<point x="0" y="128" type="line"/>
			<point x="0" y="142" type="line"/>
			<point x="256" y="142" type="line"/>
			<point x="256" y="128" type="line"/>
		</contour>
	</outline>
</glyph>
<glyph name="_28" format="2">
	<unicode hex="011C"/>
	<unicode hex="2583"/>
	<unicode hex="006F"/>
	<advance width="25"/>
	<outline>
		<component base="cap"/>
		<component base="cap" yOffset="24"/>
		<contour>
			<point x="0" y="128" type="line"/>
			<point x="0" y="152" type="line"/>
			<point x="256" y="152" type="line"/>
			<point x="256" y="128" type="line"/>
		</contour>
	</outline>
</glyph>
<glyph name="_29" format="2">
	<unicode hex="011D"/>
	<advance width="25"/>
	<outline>
		<component base="cap"/>
		<component base="cap" yOffset="34"/>
		<contour>
			<point x="0" y="128" type="line"/>
			<point x="0" y="162" type="line"/>
			<point x="256" y="162" type="line"/>
			<point x="256" y="128" type="line"/>
		</contour>
	</outline>
</glyph>
<glyph name="_32" format="2">
	<unicode hex="0120"/>
	<unicode hex="0071"/>
	<advance width="25"/>
	<outline>
		<component base="cap"/>
		<component base="cap" yOffset="64"/>
		<contour>
			<point x="0" y="128" type="line"/>
			<point x="0" y="192" type="line"/>
			<point x="256" y="192" type="line"/>
			<point x="256" y="128" type="line"/>
		</contour>
	</outline>
</glyph>
<glyph name="_33" format="2">
	<unicode hex="0121"/>
	<advance width="25"/>
	<outline>
		<component base="cap"/>
		<component base="cap" yOffset="74"/>
		<contour>
			<point x="0" y="128" type="line"/>
			<point x="0" y="202" type="line"/>
			<point x="256" y="202" type="line"/>
			<point x="256" y="128" type="line"/>
		</contour>
	</outline>
</glyph>
<glyph name="_34" format="2">
	<unicode hex="0122"/>
	<unicode hex="0072"/>
	<advance width="25"/>
	<outline>
		<component base="cap"/>
		<component base="cap" yOffset="84"/>
		<contour>
			<point x="0" y="128" type="line"/>
			<point x="0" y="212" type="line"/>
			<point x="256" y="212" type="line"/>
			<point x="256" y="128" type="line"/>
		</contour>
	</outline>
</glyph>
<glyph name="_40" format="2">
	<unicode hex="0128"/>
	<unicode hex="0034"/>
	<unicode hex="0075"/>
	<advance width="25"/>
	<outline>
		<component base="cap"/>
		<component base="cap" yOffset="144"/>
		<contour>
			<point x="0" y="128" type="line"/>
			<point x="0" y="272" type="line"/>
			<point x="256" y="272" type="line"/>
			<point x="256" y="128" type="line"/>
		</contour>
	</outline>
</glyph>
<glyph name="_41" format="2">
	<unicode hex="0129"/>
	<advance width="25"/>
	<outline>
		<component base="cap"/>
		<component base="cap" yOffset="154"/>
		<contour>
			<point x="0" y="128" type="line"/>
			<point x="0" y="282" type="line"/>
			<point x="256" y="282" type="line"/>
			<point x="256" y="128" type="line"/>
		</contour>
	</outline>
</glyph>
<glyph name="_43" format="2">
	<unicode hex="012B"/>
	<advance width="25"/>
	<outline>
		<component base="cap"/>
		<component base="cap" yOffset="174"/>
		<contour>
			<point x="0" y="128" type="line"/>
			<point x="0" y="302" type="line"/>
			<point x="256" y="302" type="line"/>
			<point x="256" y="128" type="line"/>
		</contour>
	</outline>
</glyph>
<glyph name="_47" format="2">
	<unicode hex="012F"/>
	<advance width="25"/>
	<outline>
		<component base="cap"/>
		<component base="cap" yOffset="214"/>
		<contour>
			<point x="0" y="128" type="line"/>
			<point x="0" y="342" type="line"/>
			<point x="256" y="342" type="line"/>
			<point x="256" y="128" type="line"/>
		</contour>
	</outline>
</glyph>
<glyph name="_50" format="2">
	<unicode hex="0132"/>
	<unicode hex="0035"/>
	<unicode hex="007A"/>
	<advance width="25"/>
	<outline>
		<component base="cap"/>
		<component base="cap" yOffset="244"/>
		<contour>
			<point x="0" y="128" type="line"/>
			<point x="0" y="372" type="line"/>
			<point x="256" y="372" type="line"/>
			<point x="256" y="128" type="line"/>
		</contour>
	</outline>
</glyph>
<glyph name="_52" format="2">
	<unicode hex="0134"/>
	<unicode hex="0041"/>
	<advance width="25"/>
	<outline>
		<component base="cap"/>
		<component base="cap" yOffset="264"/>
		<contour>
			<point x="0" y="128" type="line"/>
			<point x="0" y="392" type="line"/>
			<point x="256" y="392" type="line"/>
			<point x="256" y="128" type="line"/>
		</contour>
	</outline>
</glyph>
<glyph name="_53" format="2">
	<unicode hex="0135"/>
	<advance width="25"/>
	<outline>
		<component base="cap"/>
		<component base="cap" yOffset="274"/>
		<contour>
			<point x="0" y="128" type="line"/>
			<point x="0" y="402" type="line"/>
			<point x="256" y="402" type="line"/>
			<point x="256" y="128" type="line"/>
		</contour>
	</outline>
</glyph>
<glyph name="_55" format="2">
	<unicode hex="0137"/>
	<advance width="25"/>
	<outline>
		<component base="cap"/>
		<component base="cap" yOffset="294"/>
		<contour>
			<point x="0" y="128" type="line"/>
			<point x="0" y="422" type="line"/>
			<point x="256" y="422" type="line"/>
			<point x="256" y="128" type="line"/>
		</contour>
	</outline>
</glyph>
<glyph name="_59" format="2">
	<unicode hex="013B"/>
	<advance width="25"/>
	<outline>
		<component base="cap"/>
		<component base="cap" yOffset="334"/>
		<contour>
			<point x="0" y="128" type="line"/>
			<point x="0" y="462" type="line"/>
			<point x="256" y="462" type="line"/>
			<point x="256" y="128" type="line"/>
		</contour>
	</outline>
</glyph>
<glyph name="_60" format="2">
	<unicode hex="013C"/>
	<unicode hex="0036"/>
	<unicode hex="0045"/>
	<advance width="25"/>
	<outline>
		<component base="cap"/>
		<component base="cap" yOffset="344"/>
		<contour>
			<point x="0" y="128" type="line"/>
			<point x="0" y="472" type="line"/>
			<point x="256" y="472" type="line"/>
			<point x="256" y="128" type="line"/>
		</contour>
	</outline>
</glyph>
<glyph name="_61" format="2">
	<unicode hex="013D"/>
	<advance width="25"/>
	<outline>
		<component base="cap"/>
		<component base="cap" yOffset="354"/>
		<contour>
			<point x="0" y="128" type="line"/>
			<point x="0" y="482" type="line"/>
			<point x="256" y="482" type="line"/>
			<point x="256" y="128" type="line"/>
		</contour>
	</outline>
</glyph>
<glyph name="_64" format="2">
	<unicode hex="0140"/>
	<unicode hex="0047"/>
	<advance width="25"/>
	<outline>
		<component base="cap"/>
		<component base="cap" yOffset="384"/>
		<contour>
			<point x="0" y="128" type="line"/>
			<point x="0" y="512" type="line"/>
			<point x="256" y="512" type="line"/>
			<point x="256" y="128" type="line"/>
		</contour>
	</outline>
</glyph>
<glyph name="_71" format="2">
	<unicode hex="0147"/>
	<advance width="25"/>
	<outline>
		<component base="cap"/>
		<component base="cap" yOffset="454"/>
		<contour>
			<point x="0" y="128" type="line"/>
			<point x="0" y="582" type="line"/>
			<point x="256" y="582" type="line"/>
			<point x="256" y="128" type="line"/>
		</contour>
	</outline>
</glyph>
<glyph name="_76" format="2">
	<unicode hex="014C"/>
	<unicode hex="004D"/>
	<advance width="25"/>
	<outline>
		<component base="cap"/>
		<component base="cap" yOffset="504"/>
		<contour>
			<point x="0" y="128" type="line"/>
			<point x="0" y="632" type="line"/>
			<point x="256" y="632" type="line"/>
			<point x="256" y="128" type="line"/>
		</contour>
	</outline>
</glyph>
<glyph name="_77" format="2">
	<unicode hex="014D"/>
	<advance width="25"/>
	<outline>
		<component base="cap"/>
		<component base="cap" yOffset="514"/>
		<contour>
			<point x="0" y="128" type="line"/>
			<point x="0" y="642" type="line"/>
			<point x="256" y="642" type="line"/>
			<point x="256" y="128" type="line"/>
		</contour>
	</outline>
</glyph>
<glyph name="_80" format="2">
	<unicode hex="0150"/>
	<unicode hex="0038"/>
	<unicode hex="004F"/>
	<advance width="25"/>
	<outline>
		<component base="cap"/>
		<component base="cap" yOffset="544"/>
		<contour>
			<point x="0" y="128" type="line"/>
			<point x="0" y="672" type="line"/>
			<point x="256" y="672" type="line"/>
			<point x="256" y="128" type="line"/>
		</contour>
	</outline>
</glyph>
<glyph name="_83" format="2">
	<unicode hex="0153"/>
	<advance width="25"/>
	<outline>
		<component base="cap"/>
		<component base="cap" yOffset="574"/>
		<contour>
			<point x="0" y="128" type="line"/>
			<point x="0" y="702" type="line"/>
			<point x="256" y="702" type="line"/>
			<point x="256" y="128" type="line"/>
		</contour>
	</outline>
</glyph>
<glyph name="_86" format="2">
	<unicode hex="0156"/>
	<unicode hex="2587"/>
	<unicode hex="0052"/>
	<advance width="25"/>
	<outline>
		<component base="cap"/>
		<component base="cap" yOffset="604"/>
		<contour>
			<point x="0" y="128" type="line"/>
			<point x="0" y="732" type="line"/>
			<point x="256" y="732" type="line"/>
			<point x="256" y="128" type="line"/>
		</contour>
	</outline>
</glyph>
<glyph name="_88" format="2">
	<unicode hex="0158"/>
	<unicode hex="0053"/>
	<advance width="25"/>
	<outline>
		<component base="cap"/>
		<component base="cap" yOffset="624"/>
		<contour>
			<point x="0" y="128" type="line"/>
			<point x="0" y="752" type="line"/>
			<point x="256" y="752" type="line"/>
			<point x="256" y="128" type="line"/>
		</contour>
	</outline>
</glyph>
<glyph name="_89" format="2">
	<unicode hex="0159"/>
	<advance width="25"/>
	<outline>
		<component base="cap"/>
		<component base="cap" yOffset="634"/>
		<contour>
			<point x="0" y="128" type="line"/>
			<point x="0" y="762" type="line"/>
			<point x="256" y="762" type="line"/>
			<point x="256" y="128" type="line"/>
		</contour>
	</outline>
</glyph>
<glyph name="_93" format="2">
	<unicode hex="015D"/>
	<advance width="25"/>
	<outline>
		<component base="cap"/>
		<component base="cap" yOffset="674"/>
		<contour>
			<point x="0" y="128" type="line"/>
			<point x="0" y="802" type="line"/>
			<point x="256" y="802" type="line"/>
			<point x="256" y="128" type="line"/>
		</contour>
	</outline>
</glyph>
<glyph name="_98" format="2">
	<unicode hex="0162"/>
	<unicode hex="0058"/>
	<advance width="25"/>
	<outline>
		<component base="cap"/>
		<component base="cap" yOffset="724"/>
		<contour>
			<point x="0" y="128" type="line"/>
			<point x="0" y="852" type="line"/>
			<point x="256" y="852" type="line"/>
			<point x="256" y="128" type="line"/>
		</contour>
	</outline>
</glyph>
<glyph name="_102" format="2">
	<unicode hex="0166"/>
	<advance width="25"/>
	<outline>
		<component base="cap"/>
		<component base="cap" yOffset="764"/>
		<contour>
			<point x="0" y="128" type="line"/>
			<point x="0" y="892" type="line"/>
			<point x="256" y="892" type="line"/>
			<point x="256" y="128" type="line"/>
		</contour>
	</outline>
</glyph>
<glyph name="_107" format="2">
	<unicode hex="016B"/>
	<advance width="25"/>
	<outline>
		<component base="cap"/>
		<component base="cap" yOffset="814"/>
		<contour>
			<point x="0" y="128" type="line"/>
			<point x="0" y="942" type="line"/>
			<point x="256" y="942" type="line"/>
			<point x="256" y="128" type="line"/>
		</contour>
	</outline>
</glyph>
<glyph name="_110" format="2">
	<unicode hex="016E"/>
	<advance width="25"/>
	<outline>
		<component base="cap"/>
		<component base="cap" yOffset="844"/>
		<contour>
			<point x="0" y="128" type="line"/>
			<point x="0" y="972" type="line"/>
			<point x="256" y="972" type="line"/>
			<point x="256" y="128" type="line"/>
		</contour>
	</outline>
</glyph>
<glyph name="_112" format="2">
	<unicode hex="0170"/>
	<advance width="25"/>
	<outline>
		<component base="cap"/>
		<component base="cap" yOffset="864"/>
		<contour>
			<point x="0" y="128" type="line"/>
			<point x="0" y="992" type="line"/>
			<point x="256" y="992" type="line"/>
			<point x="256" y="128" type="line"/>
		</contour>
	</outline>
</glyph>
<glyph name="_118" format="2">
	<unicode hex="0176"/>
	<advance width="25"/>
	<outline>
		<component base="cap"/>
		<component base="cap" yOffset="924"/>
		<contour>
			<point x="0" y="128" type="line"/>
			<point x="0" y="1052" type="line"/>
			<point x="256" y="1052" type="line"/>
			<point x="256" y="128" type="line"/>
		</contour>
	</outline>
</glyph>
<glyph name="_121" format="2">
	<unicode hex="0179"/>
	<advance width="25"/>
	<outline>
		<component base="cap"/>
		<component base="cap" yOffset="954"/>
		<contour>
			<point x="0" y="128" type="line"/>
			<point x="0" y="1082" type="line"/>
			<point x="256" y="1082" type="line"/>
			<point x="256" y="128" type="line"/>
		</contour>
	</outline>
</glyph>
<glyph name="_127" format="2">
	<unicode hex="017F"/>
	<advance width="25"/>
	<outline>
		<component base="cap"/>
		<component base="cap" yOffset="1014"/>
		<contour>
			<point x="0" y="128" type="line"/>
			<point x="0" y="1142" type="line"/>
			<point x="256" y="1142" type="line"/>
			<point x="256" y="128" type="line"/>
		</contour>
	</outline>
</glyph>
<glyph name="_18.clip" format="2">
	<advance width="25"/>
	<outline>
		<contour>
			<point x="0" y="139.5"/>
			<point x="40.5" y="180"/>
			<point x="90" y="180" type="curve" smooth="yes"/>
			<point x="166" y="180" type="line"/>
			<point x="215.5" y="180"/>
			<point x="256" y="139.5"/>
			<point x="256" y="90" type="curve" smooth="yes"/>
			<point x="256" y="90" type="line"/>
			<point x="256" y="40.5"/>
			<point x="215.5" y="0"/>
			<point x="166" y="0" type="curve" smooth="yes"/>
			<point x="90" y="0" type="line"/>
			<point x="40.5" y="0"/>
			<point x="0" y="40.5"/>
			<point x="0" y="90" type="curve" smooth="yes"/>
			<point x="0" y="90" type="line"/>
		</contour>
	</outline>
</glyph>
<glyph name="_19.clip" format="2">
	<advance width="25"/>
	<outline>
		<contour>
			<point x="0" y="147.25"/>
			<point x="42.75" y="190"/>
			<point x="95" y="190" type="curve" smooth="yes"/>
			<point x="161" y="190" type="line"/>
			<point x="213.25" y="190"/>
			<point x="256" y="147.25"/>
			<point x="256" y="95" type="curve" smooth="yes"/>
			<point x="256" y="95" type="line"/>
			<point x="256" y="42.75"/>
			<point x="213.25" y="0"/>
			<point x="161" y="0" type="curve" smooth="yes"/>
			<point x="95" y="0" type="line"/>
			<point x="42.75" y="0"/>
			<point x="0" y="42.75"/>
			<point x="0" y="95" type="curve" smooth="yes"/>
			<point x="0" y="95" type="line"/>
		</contour>
	</outline>
</glyph>
<glyph name="_23.clip" format="2">
	<advance width="25"/>
	<outline>
		<contour>
			<point x="0" y="178.25"/>
			<point x="51.75" y="230"/>
			<point x="115" y="230" type="curve" smooth="yes"/>
			<point x="141" y="230" type="line"/>
			<point x="204.25" y="230"/>
			<point x="256" y="178.25"/>
			<point x="256" y="115" type="curve" smooth="yes"/>
			<point x="256" y="115" type="line"/>
			<point x="256" y="51.75"/>
			<point x="204.25" y="0"/>
			<point x="141" y="0" type="curve" smooth="yes"/>
			<point x="115" y="0" type="line"/>
			<point x="51.75" y="0"/>
			<point x="0" y="51.75"/>
			<point x="0" y="115" type="curve" smooth="yes"/>
			<point x="0" y="115" type="line"/>
		</contour>
	</outline>
</glyph>
